
<svg xmlns="http://www.w3.org/2000/svg">

    <symbol id="home_icon" viewBox="0 0 24 24">
        <path 
            d="M10,20V14H14V20H19V12H22L12,3L2,12H5V20H10Z"
        ></path>
    </symbol>

    <symbol id="contact_icon" viewBox="0 0 24 24">
        <path 
            d="M6.62,10.79C8.06,13.62 10.38,15.94 13.21,17.38L15.41,15.18C15.69,14.9 16.08,14.82 16.43,14.93C17.55,15.3 18.75,15.5 20,15.5A1,1 0 0,1 21,16.5V20A1,1 0 0,1 20,21A17,17 0 0,1 3,4A1,1 0 0,1 4,3H7.5A1,1 0 0,1 8.5,4C8.5,5.25 8.7,6.45 9.07,7.57C9.18,7.92 9.1,8.31 8.82,8.59L6.62,10.79Z">
        </path>
    </symbol>

    <symbol id="project_icon" viewBox="0 0 24 24">
        <path  
            d="M10,2H14A2,2 0 0,1 16,4V6H20A2,2 0 0,1 22,8V19A2,2 0 0,1 20,21H4C2.89,21 2,20.1 2,19V8C2,6.89 2.89,6 4,6H8V4C8,2.89 8.89,2 10,2M14,6V4H10V6H14Z">
        </path>
    </symbol>

    <symbol id="speaker_icon" viewBox="0 0 24 24">
        <path 
            d="M14,3.23V5.29C16.89,6.15 19,8.83 19,12C19,15.17 16.89,17.84 14,18.7V20.77C18,19.86 21,16.28 21,12C21,7.72 18,4.14 14,3.23M16.5,12C16.5,10.23 15.5,8.71 14,7.97V16C15.5,15.29 16.5,13.76 16.5,12M3,9V15H7L12,20V4L7,9H3Z">
        </path>        
    </symbol>

    <symbol id="message" viewBox="0 0 24 24">
        <path d="M20 2H4c-1.1 0-1.99.9-1.99 2L2 22l4-4h14c1.1 0 2-.9 2-2V4c0-1.1-.9-2-2-2zm-2 12H6v-2h12v2zm0-3H6V9h12v2zm0-3H6V6h12v2z"></path>
    </symbol>

    <symbol id="check" viewBox="0 0 24 24">
        <path
            d="M12,2A10,10 0 0,1 22,12A10,10 0 0,1 12,22A10,10 0 0,1 2,12A10,10 0 0,1 12,2M11,16.5L18,9.5L16.59,8.09L11,13.67L7.91,10.59L6.5,12L11,16.5Z">
        </path>
    </symbol>

    <symbol id="assign" viewBox="0 0 24 24">
        <path
        d="M19 3h-4.18C14.4 1.84 13.3 1 12 1c-1.3 0-2.4.84-2.82 2H5c-1.1 0-2 .9-2 2v14c0 1.1.9 2 2 2h14c1.1 0 2-.9 2-2V5c0-1.1-.9-2-2-2zm-7 0c.55 0 1 .45 1 1s-.45 1-1 1-1-.45-1-1 .45-1 1-1zm2 14H7v-2h7v2zm3-4H7v-2h10v2zm0-4H7V7h10v2z"/>
        </path>
    </symbol>

</svg>